<?xml version="1.0" encoding="utf-8"?>
<!-- Generator: Adobe Illustrator 27.5.0, SVG Export Plug-In . SVG Version: 6.00 Build 0)  -->
<svg version="1.1" id="Layer_1" xmlns="http://www.w3.org/2000/svg" xmlns:xlink="http://www.w3.org/1999/xlink" x="0px" y="0px"
	 viewBox="0 0 4000 4000" style="enable-background:new 0 0 4000 4000;" xml:space="preserve">
<g>
	<g>
		<g>
			<rect style="fill:#FFCAEC;" width="4000" height="4000"/>
		</g>
	</g>
	<g style="opacity:0.2;">
		<g>
			<g>
				<ellipse style="fill:#39005E;" cx="1754.019" cy="3486.181" rx="985.981" ry="103.819"/>
			</g>
		</g>
	</g>
	<g>
		<g>
			<g>
				<g>
					<polygon style="fill:#FFC470;" points="973.695,1588.805 846.258,1680.678 1108.925,2045.018 1236.361,1953.145 
						973.695,1588.805 					"/>
				</g>
			</g>
		</g>
		<g>
			<g>
				<g>
					<path style="fill:#FFC470;" d="M947.355,1502.198c-8.916-12.368-26.167-15.161-38.535-6.245
						c-32.843,23.675-93.857,67.663-128.051,92.315c-6.597,4.754-11.033,11.939-12.335,19.96
						c-1.301,8.028,0.637,16.246,5.396,22.843c7.883,10.938,17.234,23.91,25.603,35.512c12.535,17.391,36.798,21.324,54.188,8.787
						c36.58-26.373,95.712-69.004,125.471-90.461c10.139-7.306,12.429-21.451,5.123-31.59
						C973.605,1538.605,958.667,1517.891,947.355,1502.198L947.355,1502.198z"/>
				</g>
			</g>
		</g>
		<g>
			<g>
				<g>
					<path style="fill:#39005E;" d="M1060.786,1991.924c-1.003,0-2.024-0.11-3.047-0.337c-7.529-1.677-12.273-9.138-10.598-16.667
						l39.707-178.362l-164.258-11.099c-4.275-0.288-8.181-2.524-10.596-6.064c-2.414-3.54-3.069-7.991-1.78-12.078l57.749-182.722
						c2.324-7.358,10.178-11.426,17.527-9.109c7.354,2.327,11.433,10.171,9.109,17.527l-52.395,165.776l162.751,10.996
						c4.063,0.274,7.803,2.307,10.242,5.569c2.439,3.262,3.333,7.424,2.449,11.399l-43.24,194.236
						C1072.957,1987.496,1067.188,1991.924,1060.786,1991.924z"/>
				</g>
			</g>
		</g>
		<g>
			<g>
				<g>
					<path style="fill:#39005E;" d="M1108.943,2067.364c-6.938,0-13.779-3.22-18.145-9.277l-262.666-364.338
						c-7.219-10.012-4.954-23.977,5.056-31.194l127.436-91.875c4.81-3.467,10.798-4.88,16.646-3.933
						c5.85,0.95,11.084,4.182,14.551,8.989l262.666,364.341c3.464,4.81,4.878,10.796,3.931,16.646
						c-0.95,5.85-4.182,11.084-8.989,14.551l-127.437,91.873C1118.04,2065.994,1113.47,2067.364,1108.943,2067.364z
						 M877.451,1685.738l236.531,328.086l91.184-65.737l-236.531-328.089L877.451,1685.738z"/>
				</g>
			</g>
		</g>
		<g>
			<g>
				<g>
					<path style="fill:#39005E;" d="M831.001,1705.025c-19.011,0.002-37.756-8.811-49.697-25.374l-25.603-35.513
						c-8.279-11.477-11.592-25.503-9.326-39.487c2.268-13.977,9.841-26.23,21.323-34.509l128.052-92.314
						c22.346-16.116,53.628-11.04,69.731,11.304l36.86,51.121c14.502,20.125,9.932,48.289-10.186,62.786l-125.466,90.459
						C855.894,1701.28,843.389,1705.025,831.001,1705.025z M924.959,1513.087c-1.067,0-2.144,0.322-3.074,0.994l-128.052,92.314
						c-1.773,1.279-2.993,3.252-3.342,5.413c-0.352,2.161,0.181,4.419,1.46,6.194l25.605,35.515
						c2.573,3.569,6.382,5.923,10.725,6.626c4.358,0.71,8.704-0.322,12.273-2.898l125.469-90.459l-17.295-24.475l-19.502-27.046l0,0
						C928.203,1513.843,926.592,1513.087,924.959,1513.087z"/>
				</g>
			</g>
		</g>
		<g>
			<g>
				<g>
					<path style="fill:#39005E;" d="M1181.446,1898.702c-0.344,0-0.688-0.012-1.035-0.039l-192.944-14.146
						c-4.214-0.308-8.059-2.507-10.461-5.979c-2.405-3.472-3.108-7.847-1.914-11.897l47.781-162.136l-177.232-7.852
						c-7.705-0.342-13.677-6.865-13.335-14.57s6.846-13.701,14.57-13.335l195.054,8.643c4.29,0.19,8.254,2.344,10.75,5.837
						c2.495,3.496,3.242,7.944,2.029,12.063l-47.93,162.634l175.674,12.881c7.693,0.564,13.472,7.256,12.908,14.949
						C1194.822,1893.101,1188.694,1898.699,1181.446,1898.702z"/>
				</g>
			</g>
		</g>
		<g>
			<g>
				<g>
					<polygon style="fill:#FFC470;" points="1278.517,1823.573 981.281,2037.861 1028.335,2103.123 1325.566,1888.833 
						1278.517,1823.573 					"/>
				</g>
			</g>
		</g>
		<g>
			<g>
				<g>
					<path style="fill:#39005E;" d="M1028.355,2125.469c-6.938,0-13.777-3.22-18.145-9.277l-47.053-65.261
						c-3.467-4.807-4.88-10.796-3.933-16.646c0.95-5.85,4.182-11.084,8.989-14.548l297.234-214.29
						c10.012-7.222,23.979-4.949,31.194,5.056l47.051,65.261c3.467,4.807,4.88,10.796,3.933,16.646
						c-0.95,5.85-4.182,11.084-8.989,14.548l-297.231,214.289C1037.452,2124.1,1032.881,2125.469,1028.355,2125.469z
						 M1012.476,2042.921l20.918,29.009l260.979-188.154l-20.916-29.009L1012.476,2042.921z"/>
				</g>
			</g>
		</g>
		<g>
			<g>
				<g>
					<path style="fill:#F72167;" d="M1153.426,1147.094c0,0-111.348-108.505-193.256-174.436c0,0-65.998,56.809-113.912,92.634
						c0,0,132.347,79.624,195.055,157.733c0,0-52.825,11.631-97.225,37.01c-52.658,30.094-97.83,71.701-156.146,60.512
						c0,0-24.055,68.533,0,135.817c0,0,206.328-71.92,365.484-178.95C1153.426,1277.413,1153.426,1210.288,1153.426,1147.094
						L1153.426,1147.094z"/>
				</g>
			</g>
		</g>
		<g>
			<g>
				<g>
					<path style="fill:#39005E;" d="M787.942,1478.714c-9.182,0-17.778-5.698-21.04-14.829
						c-26.418-73.887-1.133-147.634-0.044-150.737c3.667-10.444,14.426-16.626,25.295-14.546
						c37.314,7.173,69.858-13.535,107.524-37.51c10.713-6.816,21.79-13.867,33.323-20.459c23.147-13.23,48.147-22.893,67.786-29.343
						c-64.358-65.281-164.91-126.167-166.052-126.853c-6.372-3.838-10.42-10.596-10.793-18.027
						c-0.371-7.429,2.978-14.561,8.936-19.014c46.736-34.944,112.06-91.111,112.715-91.675c8.167-7.031,20.193-7.232,28.589-0.471
						c81.794,65.84,190.264,171.379,194.841,175.84c4.316,4.207,6.75,9.976,6.75,16.003v130.32c0,7.439-3.704,14.392-9.875,18.542
						c-159.712,107.405-362.063,178.533-370.598,181.509C792.864,1478.311,790.381,1478.714,787.942,1478.714z M804.637,1344.749
						c-3.919,18.359-8.123,49.543-1.643,82.266c55.808-21.108,205.269-81.111,328.086-161.589v-108.858
						c-23.55-22.695-104.155-99.678-170.613-154.802c-16.997,14.392-46.616,39.185-75.259,61.746
						c43.074,28.208,126.216,86.589,173.528,145.525c4.839,6.028,6.221,14.126,3.65,21.416c-2.568,7.29-8.721,12.734-16.27,14.397
						c-0.481,0.105-50.176,11.286-90.94,34.585c-10.61,6.064-21.23,12.825-31.501,19.36
						C887.276,1321.961,849.742,1345.916,804.637,1344.749z"/>
				</g>
			</g>
		</g>
		<g>
			<g>
				<g>
					<path style="fill:#6F6F88;" d="M2292.352,2775.521c0,0,0.447,0.782,1.285,2.291c5.028,9.106,23.742,44.468,31.563,80.276
						c7.933,35.697,5.028,71.841-32.848,82.735c0,0,7.374,17.877,18.547,47.038c31.843,83.181,94.466,258.148,104.856,372.278
						c3.911,43.518,0.28,78.154-15.53,95.527c-71.897,78.936-380.043,44.915-420.042,0c-40.054-44.915,34.468-97.203,34.468-97.203
						s-50.78-205.691-176.53-326.022c0,0-48.937,25.139-174.799,0c0,0-112.454,55.92-167.648,274.069
						c0,0,74.522,78.6,55.194,149.157c-19.273,70.556-445.125,88.321-505.514-70.556c-10.838-28.49-15.363-63.294-15.418-101.226
						c-0.28-142.956,62.288-330.1,84.131-391.048c4.636-12.849,7.43-20.111,7.43-20.111s-57.54-38.49-38.993-111.896
						c7.821-31.06,29.273-68.434,74.523-111.784c2.067-1.955,4.134-3.91,6.312-5.922l34.245-191.781l2.011-11.284
						c0,0-111.393-45.306-133.515-155.525c-12.234-61.115,41.675-229.154,216.25-321.665
						c121.113-64.244,300.325-92.064,555.791-22.681c143.906,39.105,305.185,149.604,437.136,284.627
						c34.468,35.25,66.925,72.176,96.477,109.94c80.221,102.119,139.66,210.496,161.894,308.369
						C2533.628,2643.124,2463.407,2763.622,2292.352,2775.521z"/>
				</g>
			</g>
		</g>
		<g style="opacity:0.2;">
			<g>
				<g>
					<path style="fill:#39005E;" d="M2292.352,2775.521c0,0,0.447,0.782,1.285,2.291
						c-627.688,78.936-1020.859-74.299-1136.609-128.767c2.067-1.955,4.134-3.91,6.312-5.922l34.245-191.781
						c157.257,18.882,321.33-47.931,321.33-47.931c605.67,316.621,646.396-133.589,646.396-133.589
						c82.733,178.508,162.348,96.495,206.425,64.932c80.221,102.119,139.66,210.496,161.894,308.369
						C2533.628,2643.124,2463.407,2763.622,2292.352,2775.521z"/>
				</g>
			</g>
		</g>
		<g style="opacity:0.2;">
			<g>
				<g>
					<path style="fill:#39005E;" d="M2400.225,3455.666c-71.897,78.936-380.043,44.915-420.042,0
						c-40.054-44.915,34.468-97.203,34.468-97.203s-50.78-205.691-176.53-326.022c0,0-48.937,25.139-174.799,0
						c0,0-112.454,55.92-167.648,274.069c0,0,74.522,78.6,55.194,149.157c-19.273,70.556-445.125,88.321-505.514-70.556
						c-10.838-28.49-15.363-63.294-15.418-101.226c36.702,38.77,109.605,103.795,205.803,129.884
						c141.28,38.267,208.317-7.206,203.513-47.931c-3.685-31.195-83.423-32.776-137.646-29.148
						c-17.699,1.184-28.072-19.311-16.849-33.048c20.899-25.582,59.022-58.178,125.222-76.627c0,0,13.408-45.565,35.081-96.642
						c19.254-45.376-5.591-97.347-53.205-110.1c-79.465-21.284-191.416-60.552-277.787-127.437
						c4.636-12.849,7.43-20.111,7.43-20.111s-57.54-38.49-38.993-111.896c71.729,41.619,274.851,141.951,577.466,148.766
						c0,0,18.714,47.149,107.259,44.636c88.6-2.57,177.592-69.607,177.592-69.607s198.429,31.787,380.378-26.535
						c7.933,35.697,5.028,71.841-32.848,82.735c0,0,7.374,17.877,18.547,47.038c-43.959,17.028-114.776,38.513-210.124,48.477
						c-52.702,5.507-85.716,59.649-66.851,109.166c16.763,43.999,34.196,93.214,43.016,128.717c0,0,37.626,3.512,92.68,44.793
						c14.692,11.016,8.014,34.346-10.257,36.182c-44.224,4.445-102.782,16.471-107.227,48.965
						c-6.033,44.3,265.689,43.015,363.619-44.021C2419.666,3403.656,2416.035,3438.292,2400.225,3455.666z"/>
				</g>
			</g>
		</g>
		<g>
			<g>
				<g>
					<path style="fill:#39005E;" d="M1353.565,3529.974c-143.193,0.005-292.559-40.825-329.099-136.931
						c-56.211-147.847,44.912-443.164,70.632-513.55c-14.417-14.197-35.186-41.099-38.267-80.315
						c-4.15-52.849,24.709-109.092,85.803-167.253l31.963-179.126c-34.377-18.271-111.357-68.936-130.403-163.862
						c-10.933-54.497,20.872-175.371,125.806-273.474c105.837-98.948,308.687-196.072,673.992-96.831
						c138.74,37.686,299.385,141.172,440.737,283.923c141.68,143.079,240.344,301.868,270.698,435.649
						c1.253,5.518,0.364,11.304-2.485,16.194c-2.913,5-69.05,115.525-226.133,139.773c15.263,33.765,34.028,88.372,18.276,127.495
						c-5.08,12.615-13.291,22.839-24.214,30.303c14.612,37.002,46.848,121.284,73.757,210.215
						c67.761,223.936,45.078,283.337,22.122,308.533c-41.729,45.811-135.72,55.039-206.978,54.565
						c-96.218-0.527-215.237-19.897-246.294-54.751c-13.303-14.927-19.194-32.683-17.031-51.34
						c3.499-30.18,27.373-55.54,42.751-68.992c-13.223-45.486-61.953-194.641-156.846-292.048
						c-24.026,6.748-75.747,14.558-164.89-2.163c-22.117,14.644-102.1,77.527-147.188,244.751
						c20.652,24.944,70.444,93.992,52.158,160.828c-14.7,53.726-132.69,65.132-182.739,67.539
						C1377.752,3529.681,1365.669,3529.974,1353.565,3529.974z M1560.733,1921.795c-179.456,0-292.085,62.622-360.21,126.313
						c-94.651,88.489-119.98,194.79-112.51,232.039c19.404,96.714,119.019,138.809,120.024,139.224
						c9.714,4.004,15.378,14.258,13.53,24.604l-36.24,203.098c-0.854,4.792-3.25,9.172-6.824,12.478
						c-53.264,49.265-79.946,96.121-77.163,135.5c2.683,37.983,31.487,58.333,32.712,59.182c8.486,5.872,11.997,16.897,8.279,26.526
						c-1.333,3.457-132.756,347.366-76.094,496.399c28.455,74.841,162.578,104.856,268.787,107.815
						c115.811,3.208,188.105-21.333,194.373-35.41c12.971-47.461-31.663-108.281-49.963-127.696
						c-5.239-5.557-7.297-13.43-5.425-20.835c57.073-225.51,174.385-286.147,179.351-288.618c4.436-2.207,9.475-2.878,14.336-1.907
						c114.063,22.81,160.129,2.07,160.579,1.86c8.472-4.36,18.425-2.683,25.31,3.906
						c128.97,123.425,180.627,328.171,182.764,336.826c2.209,8.953-1.306,18.342-8.855,23.643
						c-8.784,6.23-34.475,28.423-36.658,47.644c-0.452,3.992-0.178,9.465,6.011,16.411c13.77,15.454,105.813,39.204,213.174,39.795
						c85.578,0.322,150.466-14.473,173.694-39.976c8.53-9.363,31.448-56.157-31.772-265.205
						c-35.225-116.472-79.822-224.985-80.266-226.069c-2.424-5.876-2.232-12.507,0.532-18.23c2.764-5.725,7.834-10.002,13.943-11.76
						c11.709-3.374,15.488-9.446,17.471-14.36c11.277-27.949-12.805-87.375-30.635-118.267c-3.852-6.675-3.997-14.871-0.376-21.672
						c3.618-6.804,10.483-11.27,18.171-11.804c134.858-9.377,201.404-89.512,218.887-114.294
						c-65.774-263.613-404.048-602.947-677.39-677.195C1728.12,1933.467,1638.196,1921.795,1560.733,1921.795z"/>
				</g>
			</g>
		</g>
		<g>
			<g>
				<g>
					<path style="fill-rule:evenodd;clip-rule:evenodd;fill:#39005E;" d="M2028.273,3377.738c0,0,16.894-15.128,53.674-20.938
						c17.759-2.805,39.401-3.894,65.556-0.615c6.351,1.29,12.563-2.816,13.854-9.173c1.292-6.351-2.821-12.563-9.172-13.854
						c-36.061-10.228-65.411-11.402-88.226-9.619c-41.999,3.29-62.92,18.765-62.92,18.765c-9.782,7.513-11.619,21.552-4.1,31.333
						C2004.453,3383.414,2018.491,3385.252,2028.273,3377.738L2028.273,3377.738z"/>
				</g>
			</g>
		</g>
		<g>
			<g>
				<g>
					<path style="fill-rule:evenodd;clip-rule:evenodd;fill:#39005E;" d="M1506.564,3286.049c0,0-30.719-14.497-83.718-11.369
						c-30.826,1.816-69.584,9.146-114.36,29.764c-6.033,2.38-9,9.207-6.625,15.24c2.38,6.033,9.207,9,15.24,6.626
						c33.898-11.206,63.444-15.268,88.276-15.77c52.093-1.062,81.176,15.468,81.176,15.468c11.028,5.525,24.464,1.056,29.988-9.971
						C1522.061,3305.009,1517.592,3291.573,1506.564,3286.049L1506.564,3286.049z"/>
				</g>
			</g>
		</g>
		<g>
			<g>
				<g>
					<path style="fill:#39005E;" d="M1752.181,3064.219c-86.885,0-149.39-52.6-170.334-72.969
						c-192.598,3.057-457.38-99.434-468.755-103.875c-11.494-4.49-17.173-17.446-12.683-28.943
						c4.49-11.494,17.446-17.168,28.94-12.688c2.749,1.074,277.009,107.192,460.886,100.581c6.631-0.242,13.137,2.527,17.568,7.554
						c0.547,0.61,59.512,65.647,144.377,65.647c76.147,0,117.917-22.087,177.529-68.501c4.038-3.142,9.058-4.846,14.146-4.709
						c2.539,0.044,254.573,4.365,340.952-26.531c11.609-4.155,24.409,1.892,28.564,13.516c4.155,11.619-1.895,24.409-13.516,28.564
						c-85.938,30.737-303.862,29.8-348.943,29.25C1888.858,3038.575,1837.51,3064.219,1752.181,3064.219z"/>
				</g>
			</g>
		</g>
		<g>
			<g>
				<g>
					<path style="fill:#F72167;" d="M1160.962,2645.942c0,0,294.504,221.875,1136.425,122.298l-19.787-99.584
						c0,0-742.433,99.584-1098.174-112.672L1160.962,2645.942L1160.962,2645.942z"/>
				</g>
			</g>
		</g>
		<g style="opacity:0.2;">
			<g>
				<g>
					<path style="fill:#39005E;" d="M2297.379,2768.259c-841.926,99.55-1136.442-122.342-1136.442-122.342l9.218-44.803
						c55.417,35.082,367.362,204.127,1117.336,117.203L2297.379,2768.259z"/>
				</g>
			</g>
		</g>
		<g>
			<g>
				<g>
					<path style="fill:#6F6F88;" d="M1325.571,2619.569c-0.861-0.314,333.217-94.628,805.33-516.446l50.702,36.249
						c0,0-262.924,269.22-690.211,512.397C1491.392,2651.768,1414.283,2651.768,1325.571,2619.569L1325.571,2619.569z"/>
				</g>
			</g>
		</g>
		<g>
			<g>
				<g>
					<path style="fill:#39005E;" d="M1889.746,2816.065c-216.79,0-374.939-24.27-481.519-49.905
						c-181.294-43.606-257.554-99.99-260.71-102.371c-6.892-5.19-10.178-13.887-8.445-22.339l18.462-89.958
						c1.455-7.09,6.252-13.035,12.876-15.955c6.621-2.92,14.243-2.449,20.464,1.257
						c344.907,205.789,1076.409,110.701,1083.757,109.712c11.66-1.572,22.588,6.226,24.885,17.793l19.785,99.585
						c1.216,6.113-0.178,12.454-3.84,17.493c-3.662,5.039-9.265,8.323-15.452,9.053
						C2144.917,2808.775,2008.516,2816.065,1889.746,2816.065z M1185.906,2635.555c26.829,16.299,101.584,56.052,237.051,88.174
						c157.979,37.461,432.402,71.724,847.788,25.09l-11.026-55.488c-55.119,6.326-213.118,22.229-397.964,20.93
						c-291.37-2.07-515.371-43.701-666.594-123.804L1185.906,2635.555z M1160.962,2645.943h0.049H1160.962z"/>
				</g>
			</g>
		</g>
		<g>
			<g>
				<g>
					<path style="fill:#39005E;" d="M1491.392,2674.114c-3.308,0-82.09-0.381-173.445-33.54c-8.984-3.262-14.9-11.877-14.719-21.433
						c0.093-4.812,1.97-16.541,17.393-21.477c58.088-18.594,369.434-130.623,795.393-511.204c7.795-6.963,19.38-7.593,27.883-1.516
						l50.703,36.248c5.305,3.794,8.689,9.712,9.263,16.208c0.576,6.494-1.716,12.917-6.272,17.583
						c-2.652,2.715-270.042,274.27-695.147,516.206C1499.078,2673.106,1495.266,2674.114,1491.392,2674.114z M1397.054,2617.088
						c42.302,9.436,75.835,11.655,88.691,12.175c353.345-201.938,594.544-423.088,661.214-487.192l-14.539-10.393
						C1789.876,2434.959,1520.196,2567.135,1397.054,2617.088z"/>
				</g>
			</g>
		</g>
		<g style="opacity:0.2;">
			<g>
				<g>
					<path style="fill:#39005E;" d="M2275.257,2224.814c-121.002,46.926-292.839,59.607-476.52,26.368
						c-249.154-45.082-448.309-161.727-516.407-288.314c121.113-64.244,300.325-92.064,555.791-22.681
						C1982.027,1979.292,2143.307,2089.791,2275.257,2224.814z"/>
				</g>
			</g>
		</g>
		<g>
			<g>
				<g>
					<path style="fill:#F72167;" d="M1802.376,2721.894c0,0,60.724,151.979,152.107,250.075
						c15.871,16.525,40.608,20.894,61.177,10.799c17.15-8.532,37.926-21.39,56.406-39.614c19.82-19.263,20.279-50.937,1.028-70.768
						c-42.061-42.96-124.662-121.215-210.368-172.095L1802.376,2721.894L1802.376,2721.894z"/>
				</g>
			</g>
		</g>
		<g style="opacity:0.2;">
			<g>
				<g>
					<path style="fill:#39005E;" d="M2072.08,2943.169c-18.491,18.212-39.273,31.06-56.423,39.608
						c-20.558,10.111-45.306,5.698-61.171-10.782c-91.394-98.097-152.118-250.103-152.118-250.103l39.719-14.245
						c26.647,50.948,65.473,115.471,112.399,165.804c15.865,16.536,40.613,20.893,61.171,10.838
						c12.905-6.425,27.82-15.307,42.345-27.038c5.475,5.419,10.502,10.502,15.083,15.139
						C2092.359,2892.221,2091.912,2923.896,2072.08,2943.169z"/>
				</g>
			</g>
		</g>
		<g>
			<g>
				<g>
					<path style="fill:#39005E;" d="M1992.364,3010.538c-19.932,0-39.48-7.974-53.997-23.088
						c-93.394-100.254-154.199-250.898-156.741-257.263c-2.253-5.635-2.117-11.941,0.378-17.473
						c2.493-5.532,7.126-9.812,12.839-11.855l60.349-21.604c6.274-2.244,13.218-1.577,18.938,1.824
						c89.204,52.957,172.949,132.798,214.929,175.679c27.859,28.696,27.192,74.614-1.421,102.422
						c-17.263,17.024-38.169,31.729-62.026,43.599C2014.966,3008.001,2003.604,3010.538,1992.364,3010.538z M1832.312,2734.913
						c19.968,44.543,70.994,149.336,138.521,221.826c8.943,9.307,23.098,11.804,34.98,5.972
						c13.379-6.658,33.118-18.267,50.564-35.466c11.067-10.757,11.321-28.333,0.684-39.292
						c-31.401-32.073-112.041-110.645-196.819-163.04L1832.312,2734.913z"/>
				</g>
			</g>
		</g>
		<g>
			<g>
				<g>
					<path style="fill:#F72167;" d="M1745.35,2700.292c0,0-133.621,54.255-238.081,151.319
						c-12.743,11.995-18.362,29.737-14.849,46.886c4.268,20.764,15.944,48.87,46.323,74.06
						c19.854,16.484,49.065,14.869,66.986-3.699c44.423-46.256,129.996-140.711,170.396-222.719L1745.35,2700.292L1745.35,2700.292z
						"/>
				</g>
			</g>
		</g>
		<g style="opacity:0.2;">
			<g>
				<g>
					<path style="fill:#39005E;" d="M1776.112,2746.137c-40.39,82.008-125.973,176.474-170.385,222.73
						c-17.932,18.547-47.149,20.167-66.981,3.687c-30.39-25.195-42.066-53.294-46.311-74.076c-3.519-17.15,2.067-34.859,14.86-46.87
						c1.9-1.732,3.743-3.464,5.642-5.139c6.536,9.273,14.972,18.603,25.809,27.597c19.832,16.48,49.049,14.86,66.981-3.687
						c35.083-36.535,95.863-103.125,139.716-169.938L1776.112,2746.137z"/>
				</g>
			</g>
		</g>
		<g>
			<g>
				<g>
					<path style="fill:#39005E;" d="M1570.161,3006.163c-16.204,0-32.446-5.415-45.693-16.414
						c-35.972-29.829-49.187-63.643-53.936-86.753c-5.11-24.934,2.9-50.22,21.418-67.654
						c106.35-98.821,239.38-153.477,244.993-155.754c9.8-3.977,21.06-0.54,26.958,8.25l30.776,45.85
						c4.458,6.641,5.027,15.156,1.492,22.329c-41.191,83.613-126.899,178.938-174.324,228.32
						C1607.886,2998.799,1589.051,3006.163,1570.161,3006.163z M1737.227,2728.284c-38.303,17.585-135.813,66.353-214.749,139.697
						c-7.046,6.636-10.139,16.404-8.167,26.03c3.303,16.082,12.703,39.79,38.694,61.343c10.806,8.97,26.897,8.086,36.646-2.014
						c43.398-45.19,120.061-130.171,160.571-205.696L1737.227,2728.284z"/>
				</g>
			</g>
		</g>
		<g>
			<g>
				<g>
					<path style="fill:#F72167;" d="M1802.376,2594.089c61.757,0,111.901,44.774,111.901,99.924
						c0,55.155-50.144,99.929-111.901,99.929c-61.764,0-111.907-44.774-111.907-99.929
						C1690.469,2638.863,1740.612,2594.089,1802.376,2594.089L1802.376,2594.089z"/>
				</g>
			</g>
		</g>
		<g>
			<g>
				<g>
					<path style="fill:#F72167;" d="M1802.376,2594.089c61.757,0,111.901,44.774,111.901,99.924
						c0,55.155-50.144,99.929-111.901,99.929c-61.764,0-111.907-44.774-111.907-99.929
						C1690.469,2638.863,1740.612,2594.089,1802.376,2594.089L1802.376,2594.089z"/>
				</g>
			</g>
		</g>
		<g style="opacity:0.2;">
			<g>
				<g>
					<path style="fill:#39005E;" d="M1914.264,2694.016c0,55.138-50.11,99.941-111.896,99.941
						c-61.73,0-111.896-44.803-111.896-99.941c0-15.418,3.966-30.055,11.005-43.127c18.044,33.574,56.478,56.758,100.89,56.758
						c44.468,0,82.902-23.184,100.946-56.758C1910.354,2663.961,1914.264,2678.597,1914.264,2694.016z"/>
				</g>
			</g>
		</g>
		<g>
			<g>
				<g>
					<path style="fill:#39005E;" d="M1802.376,2816.287c-74.026,0-134.253-54.854-134.253-122.275
						c0-67.419,60.227-122.268,134.253-122.268c74.023,0,134.248,54.849,134.248,122.268
						C1936.624,2761.434,1876.399,2816.287,1802.376,2816.287z M1802.376,2616.436c-49.385,0-89.561,34.8-89.561,77.576
						c0,42.781,40.176,77.583,89.561,77.583c49.382,0,89.556-34.802,89.556-77.583
						C1891.932,2651.236,1851.758,2616.436,1802.376,2616.436z"/>
				</g>
			</g>
		</g>
		<g>
			<g>
				<g>
					<path style="fill-rule:evenodd;clip-rule:evenodd;fill:#39005E;" d="M2275.074,2653.807c0,0,6.302-85.238-30.96-220.154
						c-16.379-59.3-41.121-128.348-78.746-204.072c-2.855-6.101-10.129-8.738-16.234-5.882c-6.101,2.854-8.737,10.128-5.882,16.234
						c33.155,75.395,54.121,143.693,67.35,202.139c28.987,128.096,19.966,207.652,19.966,207.652
						c-1.129,12.284,7.933,23.167,20.212,24.296C2263.058,2675.142,2273.947,2666.086,2275.074,2653.807L2275.074,2653.807z"/>
				</g>
			</g>
		</g>
		<g>
			<g>
				<g>
					<path style="fill:#6F6F88;" d="M1125.394,1248.147c67.333-334.363,317.682-800.337,988.888-656.247
						c598.572,128.493,593.187,682.687,538.462,824.66c-37.373,96.952-97.51,257.03-97.51,397.824
						c0,100.902-94.823,443.65-711.204,333.179C1236.92,2038.751,1032.502,1709.399,1125.394,1248.147L1125.394,1248.147z"/>
				</g>
			</g>
		</g>
		<g style="opacity:0.2;">
			<g>
				<g>
					<path style="fill:#39005E;" d="M2555.695,1786.893c-0.28,7.095-0.447,14.189-0.447,21.228
						c0,100.89-94.857,443.672-711.205,333.173c-607.13-108.823-811.537-438.141-718.635-899.411
						c12.402-61.618,31.06-127.705,57.428-193.625c-0.168,0.782-0.335,1.564-0.503,2.347
						c-92.902,461.269,111.561,790.587,718.635,899.411C2296.039,2020.851,2476.87,1905.436,2555.695,1786.893z"/>
				</g>
			</g>
		</g>
		<g>
			<g>
				<g>
					<path style="fill:#E35656;" d="M2672.227,1327.247c-4.134,37.206-11.229,67.931-19.496,89.327
						c-7.262,18.826-15.363,40.054-23.742,63.07C2640.329,1426.405,2656.138,1374.173,2672.227,1327.247z"/>
				</g>
			</g>
		</g>
		<g style="opacity:0.6;">
			<g>
				<g>
					<path style="fill:#FFFFFF;" d="M2665.132,1131.89c-53.238-192.508-198.82-399.483-535.512-471.772
						c-62.512-13.407-121.392-21.507-176.81-24.916c-2.905,19.944-46.926,38.882-102.063,43.072
						c-57.987,4.469-106.309-9.05-107.929-30.167c-0.056-0.67-0.056-1.341,0-1.955c-386.356,69.942-549.702,409.93-602.103,670.201
						c-23.63,117.426-28.043,226.305-11.396,325.184c-32.96-116.197-33.127-248.26-3.911-393.394
						c67.316-334.346,317.643-800.308,988.849-656.235C2491.228,672.856,2628.653,922.624,2665.132,1131.89z"/>
				</g>
			</g>
		</g>
		<g>
			<g>
				<g>
					<path style="fill:#F2C5A9;" d="M1538.228,1198.461c0,0-126.627,312.894,56.976,451.073
						c177.396,133.516,310.565-2.636,496.575,31.552c117.811,21.654,170.217,155.838,313.095,127.839
						c136.157-26.68,140.526-259.376,119.181-359.831C2524.055,1449.095,2093.623,1229.625,1538.228,1198.461L1538.228,1198.461z"/>
				</g>
			</g>
		</g>
		<g>
			<g>
				<g>
					<path style="fill:#39005E;" d="M2367.242,1835.062c-70.623,0-120.581-37.451-165.491-71.116
						c-36.289-27.202-70.564-52.896-114.011-60.881c-69.033-12.685-131.887-0.181-192.668,11.919
						c-97.236,19.348-197.773,39.358-313.303-47.595c-195.076-146.814-69.688-463.884-64.253-477.31
						c3.586-8.865,12.393-14.456,21.965-13.928c553.692,31.069,990.379,250.82,994.726,253.037
						c6.003,3.062,10.305,8.669,11.707,15.264c16.04,75.491,19.326,228.794-40.144,318.784
						c-24.529,37.117-57.029,59.866-96.599,67.62C2394.402,1833.748,2380.459,1835.062,2367.242,1835.062z M2027.547,1652.989
						c21.951,0,44.629,1.775,68.274,6.121c53.772,9.883,93.914,39.976,132.734,69.077c52.505,39.355,97.844,73.34,172.021,58.811
						c27.766-5.439,49.978-21.272,67.908-48.401c46.921-71.001,49.207-198.901,35.767-274.317
						c-65.845-31.604-459.629-211.482-950.73-242.522c-21.272,61.907-90.764,300.129,55.122,409.922
						c99.558,74.929,182.114,58.496,277.703,39.473C1931.438,1662.178,1977.6,1652.989,2027.547,1652.989z"/>
				</g>
			</g>
		</g>
		<g>
			<g>
				<g>
					<path style="fill:#39005E;" d="M2069.19,2191.775c-70.007,0.002-146.409-7.395-229.104-22.217
						c-313.372-56.165-532.703-173.491-651.902-348.713c-102.866-151.216-131.362-345.383-84.697-577.109l0,0
						c30.288-150.395,117.3-426.433,359.775-585.4c174.641-114.492,395.259-144.197,655.708-88.284
						c231.851,49.771,398.349,165.513,494.875,344.016c103.306,191.042,97.129,413.55,59.746,510.53
						c-33.555,87.053-96.013,249.089-96.013,389.785c0,70.19-34.776,181.255-132.781,263.257
						C2353.977,2153.628,2228.125,2191.771,2069.19,2191.775z M1876.687,587.369c-148.657,0-278.862,36.186-388.923,108.342
						c-228.882,150.056-311.555,413.291-340.464,556.848c-44.207,219.502-18.018,402.244,77.837,543.149
						c112.183,164.912,321.736,275.893,622.834,329.861c253.181,45.376,449.646,16.946,568.147-82.205
						c92.175-77.124,116.768-180.222,116.768-228.982c0-149.009,64.404-316.096,99.007-405.859
						c25.881-67.146,47.373-279.519-57.361-473.198c-90.022-166.482-246.452-274.675-464.941-321.577
						C2027.635,596.153,1949.912,587.369,1876.687,587.369z M1125.393,1248.147h0.049H1125.393z"/>
				</g>
			</g>
		</g>
		<g>
			<g>
				<g>
					<path style="fill:#F72167;" d="M1121.488,1277.055c0,0,774.857-78.829,1481.09,272.494l44.072-126.225
						c0,0-575.78-357.961-1489.933-289.879C1156.717,1133.446,1137.007,1178.371,1121.488,1277.055L1121.488,1277.055z"/>
				</g>
			</g>
		</g>
		<g>
			<g>
				<g>
					<path style="fill:#39005E;" d="M2602.579,1571.895c-3.416,0-6.826-0.784-9.954-2.339
						c-361.296-179.731-741.184-243.662-996.253-265.642c-276.926-23.865-470.706-4.819-472.627-4.626
						c-6.907,0.693-13.721-1.841-18.486-6.87c-4.761-5.032-6.924-11.99-5.847-18.833c15.789-100.386,35.989-147.173,36.841-149.116
						c3.323-7.573,10.557-12.693,18.804-13.308c475.764-35.425,858.667,45.903,1096.12,120.374
						c257.952,80.898,401.294,169.099,407.271,172.815c8.882,5.522,12.744,16.467,9.297,26.343l-44.07,126.223
						c-2.115,6.057-6.729,10.911-12.671,13.33C2608.299,1571.346,2605.438,1571.895,2602.579,1571.895z M1320.157,1247.23
						c76.631,0,171.667,2.854,278.95,12.063c253.889,21.794,629.612,84.541,990.681,259.097l29.692-85.042
						c-43.423-24.531-177.32-95.234-383.367-159.7c-231.033-72.28-602.205-151.133-1063.484-118.948
						c-5.508,16.101-15.181,48.267-24.299,97.822C1181.275,1250.289,1240.857,1247.23,1320.157,1247.23z"/>
				</g>
			</g>
		</g>
		<g>
			<g>
				<g>
					<path style="fill:#39005E;" d="M2258.656,1606.48c0,0,107.65-9.295,141.576-27.759c0,0,0,142.62-81.455,142.62
						C2238.707,1721.341,2258.656,1606.48,2258.656,1606.48L2258.656,1606.48z"/>
				</g>
			</g>
		</g>
		<g>
			<g>
				<g>
					<path style="fill:#39005E;" d="M1781.287,1403.33c0,0,59.305,88.204,124.018,117.215c0,0-79.209,133.666-164.313,65.902
						C1658.224,1520.545,1781.287,1403.33,1781.287,1403.33L1781.287,1403.33z"/>
				</g>
			</g>
		</g>
		<g>
			<g>
				<g>
					<g>
						<path style="fill:#A6A6A6;" d="M1584.806,2434.995l596.797,108.112l620.115,143.967c13.346,3.099,18.389,19.443,9.107,29.522
							l-44.519,48.345c-3.479,3.778-8.414,5.877-13.548,5.762l-602.915-13.425l-591.985-235.569
							c-22.672-9.022-32.447-35.765-20.937-57.281l4.54-8.486C1549.833,2440.293,1567.343,2431.831,1584.806,2434.995z"/>
					</g>
				</g>
			</g>
			<g>
				<g>
					<g>
						<path style="fill:#39005E;" d="M2747.784,2793.055c-0.3,0-0.598-0.005-0.899-0.012l-600.261-13.423
							c-2.671-0.061-5.31-0.601-7.793-1.592l-589.38-235.569c-16.626-6.646-29.692-20.122-35.854-36.97
							c-6.177-16.895-4.873-35.688,3.579-51.563l4.524-8.491c12.947-24.316,39.827-37.356,66.875-32.424h-0.002l594.17,108.11
							c0.361,0.066,0.72,0.139,1.076,0.222l617.388,143.967c14.043,3.276,24.976,13.472,29.243,27.273
							c4.275,13.828,0.993,28.45-8.779,39.111l-44.326,48.345C2769.737,2788.34,2759.004,2793.055,2747.784,2793.055z
							 M2151.665,2735.03l594.133,13.286l37.793-41.221l-609.387-142.102l-593.63-108.013c-0.002,0-0.002,0-0.002,0
							c-7.842-1.436-15.652,2.375-19.426,9.465l-4.524,8.491c-2.527,4.744-2.9,10.146-1.052,15.203
							c1.833,5.012,5.552,8.855,10.471,10.82L2151.665,2735.03z"/>
					</g>
				</g>
			</g>
			<g>
				<g>
					<g>
						<path style="fill:#A6A6A6;" d="M3234.052,2270.79c-0.112,10.447-4.246,20.614-11.843,28.267
							c-102.399,103.627-333.843,337.809-430.935,436.074c-28.155,28.491-67.093,43.742-107.091,41.898
							c-136.531-6.313-453.56-20.893-521.379-23.966c-8.603-0.391-17.038-2.123-25.083-5.14
							c-76.254-28.603-490.207-183.625-609.197-228.204c-17.821-6.704-27.206-26.312-21.173-44.356
							c2.905-8.659,5.978-17.988,8.771-26.479c2.626-7.765,8.268-14.245,15.698-17.876c7.374-3.575,15.921-4.078,23.686-1.341
							c117.538,41.675,546.462,193.737,546.462,193.737s375.518-376.579,499.816-501.212c24.356-24.469,59.942-34.133,93.348-25.362
							c114.465,29.999,381.44,99.997,508.195,133.236c14.245,3.743,25.418,14.804,29.328,29.049
							C3233.716,2262.969,3234.219,2266.879,3234.052,2270.79z"/>
					</g>
				</g>
			</g>
			<g style="opacity:0.6;">
				<g>
					<g>
						<path style="fill:#FFFFFF;" d="M3234.052,2270.79c-0.056,5.251-1.117,10.391-3.128,15.251
							c-4.414-3.407-9.497-5.977-15.027-7.485c-126.756-33.239-393.73-103.237-508.195-133.236
							c-33.407-8.771-68.992,0.894-93.349,25.363c-107.666,107.956-403.821,404.947-481.147,482.491
							c-11.419,11.451-28.336,15.293-43.578,9.89c-93.196-33.04-421.097-149.288-521.552-184.905
							c-7.765-2.737-16.312-2.235-23.686,1.341c-7.43,3.631-13.072,10.111-15.698,17.876c-2.011,6.201-4.19,12.793-6.369,19.273
							c-13.686-8.436-20.279-25.474-14.972-41.284c2.905-8.659,5.978-17.988,8.771-26.479c2.626-7.765,8.268-14.245,15.698-17.876
							c7.374-3.575,15.921-4.078,23.686-1.341c117.538,41.675,546.462,193.737,546.462,193.737s375.518-376.579,499.816-501.212
							c24.356-24.469,59.942-34.133,93.348-25.362c114.465,29.999,381.44,99.997,508.195,133.236
							c14.245,3.743,25.418,14.804,29.328,29.049C3233.716,2262.969,3234.219,2266.879,3234.052,2270.79z"/>
					</g>
				</g>
			</g>
			<g>
				<g>
					<g>
						<path style="fill:#39005E;" d="M2690.643,2799.502c-2.495,0.002-4.986-0.056-7.486-0.171l-521.406-23.965
							c-10.891-0.496-21.614-2.693-31.863-6.528l-609.18-228.191c-29.243-10.952-44.424-42.742-34.556-72.371l8.792-26.426
							c4.468-13.42,14.324-24.68,27.036-30.894c12.729-6.216,27.668-7.056,41.001-2.327l533.149,188.984l489.815-491.211
							c29.897-29.988,73.916-41.951,114.878-31.196l508.145,133.257c21.919,5.747,39.255,22.893,45.244,44.746
							c5.989,21.851-0.186,45.439-16.108,61.563l-430.952,436.084C2776.363,2782.01,2734.251,2799.502,2690.643,2799.502z
							 M1545.257,2450.271c-1.26,0-2.517,0.283-3.662,0.842c-1.995,0.974-3.545,2.747-4.248,4.856l-8.792,26.426
							c-2.236,6.716,1.204,13.918,7.83,16.401l609.172,228.188c5.867,2.195,12.004,3.452,18.237,3.738l521.414,23.965
							c33.621,1.538,66.489-11.301,90.156-35.244l430.947-436.082c4.741-4.8,6.582-11.831,4.8-18.34
							c-1.785-6.509-6.948-11.616-13.479-13.328l-508.144-133.257c-25.628-6.721-53.181,0.757-71.897,19.524l0,0l-499.788,501.213
							c-6.091,6.111-15.161,8.162-23.289,5.283L1548.04,2450.75C1547.141,2450.43,1546.199,2450.271,1545.257,2450.271z
							 M2601.768,2122.183h0.051H2601.768z"/>
					</g>
				</g>
			</g>
			<g>
				<g>
					<g>
						<path style="fill:#39005E;" d="M2183.934,2677.21c-2.698,0-5.42-0.488-8.03-1.494l-81.55-31.423
							c-7.027-2.708-12.217-8.774-13.806-16.135c-1.592-7.361,0.635-15.027,5.916-20.393c3.747-3.804,375.991-381.865,500-502.402
							c25.425-24.719,67.969-37.334,101.279-6.609c12.92,11.914,20.007,29.099,19.956,48.384
							c-0.066,23.953-11.04,48.806-28.642,64.866c-128.941,117.617-476.038,455.474-479.529,458.872
							C2195.279,2675.01,2189.656,2677.21,2183.934,2677.21z M2142.227,2614.844l36.392,14.021
							c58.767-57.136,353.435-343.262,470.317-449.88c8.384-7.649,14.038-20.498,14.07-31.968c0.012-4.68-0.942-11.15-5.562-15.413
							c-16.882-15.576-37.531,3.569-39.834,5.806C2512.278,2239.793,2226.831,2529.019,2142.227,2614.844z"/>
					</g>
				</g>
			</g>
			<g>
				<g>
					<g>
						<path style="fill:#39005E;" d="M2149.847,2768.077c-2.388,0-4.817-0.386-7.205-1.199c-11.682-3.977-17.93-16.67-13.95-28.354
							l30.933-90.862c3.975-11.68,16.667-17.93,28.354-13.95c11.682,3.977,17.93,16.67,13.95,28.354l-30.933,90.862
							C2167.833,2762.222,2159.148,2768.077,2149.847,2768.077z"/>
					</g>
				</g>
			</g>
			<g>
				<g>
					<g>
						<path style="fill:#39005E;" d="M2818.899,2722.637c-0.532,0-1.069-0.02-1.609-0.056l-638.101-45.427
							c-12.309-0.876-21.58-11.567-20.703-23.877c0.879-12.312,11.609-21.567,23.877-20.703l638.1,45.427
							c12.31,0.876,21.58,11.567,20.703,23.877C2840.327,2713.648,2830.518,2722.637,2818.899,2722.637z"/>
					</g>
				</g>
			</g>
			<g style="opacity:0.2;">
				<g>
					<g>
						<path style="fill:#39005E;" d="M3234.052,2270.79c-0.112,10.447-4.246,20.614-11.843,28.267
							c-102.399,103.627-333.843,337.809-430.935,436.074c-28.155,28.491-67.093,43.742-107.091,41.898
							c-136.531-6.313-453.56-20.893-521.379-23.966c-8.603-0.391-17.038-2.123-25.083-5.14
							c-76.254-28.603-490.207-183.625-609.197-228.204c-17.821-6.704-27.206-26.312-21.173-44.356
							c2.905-8.659,563.365,202.552,563.365,202.552l41.439,9.802c32.949,7.794,67.566-2.379,91.061-26.759l479.905-497.987
							c0,0,319.542,77.651,453.615,113.627C3187.517,2290.231,3217.013,2283.918,3234.052,2270.79z"/>
					</g>
				</g>
			</g>
			<g>
				<g>
					<g>
						
							<ellipse transform="matrix(0.803 -0.5959 0.5959 0.803 -931.686 2121.2222)" style="fill:#FFFFFF;" cx="2743.166" cy="2470.076" rx="65.194" ry="41.157"/>
					</g>
				</g>
			</g>
		</g>
		<g>
			<g>
				<g>
					<path style="fill:#F2C5A9;" d="M2612.493,2686.795c0,0,59.433-73.83,127.353-60.936
						c67.914,12.887,46.161,269.225-176.832,275.645c-222.991,6.424-231.735-230.087-157.318-275.645
						C2487.302,2575.894,2612.493,2686.795,2612.493,2686.795L2612.493,2686.795z"/>
				</g>
			</g>
		</g>
		<g style="opacity:0.6;">
			<g>
				<g>
					<path style="fill:#FFFFFF;" d="M2767.754,2742.897c-1.117-34.58-13.463-60.613-33.909-64.467
						c-46.847-8.899-89.629,23.462-111.673,44.407c-9.27,8.808-23.49,9.74-33.711,2.056
						c-37.615-28.274-126.036-84.832-188.739-46.464c-16.535,10.111-28.938,29.664-35.809,53.853
						c-1.788-46.926,14.357-89.662,41.786-106.421c81.617-49.943,206.809,60.947,206.809,60.947s59.439-73.852,127.314-60.947
						C2769.821,2631.56,2782.335,2684.742,2767.754,2742.897z"/>
				</g>
			</g>
		</g>
		<g>
			<g>
				<g>
					<path style="fill:#39005E;" d="M2554.666,2923.97c-102.485,0.002-178.618-51.379-204.585-138.694
						c-21.382-71.902-2.077-150.298,43.948-178.474c75.962-46.504,176.672,19.214,216.357,49.526
						c24.407-23.762,75.259-63.496,133.628-52.422c35.957,6.821,56.189,48.997,51.541,107.441
						c-7.9,99.355-83.841,208.23-231.899,212.493C2560.638,2923.929,2557.639,2923.97,2554.666,2923.97z M2454.051,2635.374
						c-13.228,0-25.713,2.825-36.687,9.543c-24.968,15.286-41.147,71.455-24.443,127.62
						c9.885,33.245,46.289,110.251,169.448,106.631c138.467-3.987,183.723-109.592,188.635-171.362
						c2.881-36.211-7.232-58.457-15.323-59.993c-53.291-10.112-105.271,52.361-105.781,52.993
						c-3.831,4.761-9.444,7.742-15.532,8.254c-6.094,0.503-12.122-1.489-16.692-5.54
						C2572.476,2681.277,2507.332,2635.374,2454.051,2635.374z"/>
				</g>
			</g>
		</g>
		<g>
			<g>
				<g>
					<path style="fill-rule:evenodd;clip-rule:evenodd;fill:#6F6F88;" d="M1905.326,2405.813
						c-47.093,43.071-80.612-43.127-80.612-43.127s-110.108,109.214-289.711,16.312c0,0-1.509,1.397-4.525,3.743
						c-23.63,18.659-139.493,99.159-330.882,57.317l114.856-283.342c0,0,239.88-126.532,414.734-63.071
						c9.05,3.296,17.765,6.983,26.144,10.949C1908.734,2178,1949.905,2364.921,1905.326,2405.813z"/>
				</g>
			</g>
		</g>
		<g>
			<g>
				<g>
					<path style="fill:#F2C5A9;" d="M1905.326,2405.813c-47.093,43.071-80.612-43.127-80.612-43.127
						s-110.108,109.214-289.711,16.312c0,0-1.509,1.397-4.525,3.743c-7.43-42.792-31.731-231.333,103.292-292.839
						c0,0,56.59,6.257,121.56,14.692C1908.734,2178,1949.905,2364.921,1905.326,2405.813z"/>
				</g>
			</g>
		</g>
		<g style="opacity:0.6;">
			<g>
				<g>
					<path style="fill:#FFFFFF;" d="M1325.566,2151.162c0,0,207.733-94.908,384.228-48.041
						c160.858,42.714,210.089,166.208,195.724,288.311c0,0-29.671-197.519-215.048-242.41
						C1505.092,2104.132,1325.566,2151.162,1325.566,2151.162z"/>
				</g>
			</g>
		</g>
		<g>
			<g>
				<g>
					<path style="fill:#39005E;" d="M1878.904,2440.215c-4.395,0-8.394-0.562-11.887-1.379
						c-22.747-5.315-39.365-24.788-49.924-41.812c-42.786,28.862-141.97,74.438-281.196,7.397
						c-4.397,1.096-9.104,0.852-13.472-0.837c-7.319-2.827-12.62-9.287-13.962-17.019c-7.097-40.874-34.863-248.254,116.045-316.997
						c3.667-1.672,7.708-2.317,11.719-1.875c0.569,0.061,57.549,6.377,121.98,14.741c2.349,0.305,4.634,0.981,6.77,2.004
						c112.839,53.994,166.006,161.216,177.249,236.628c6.868,46.074-0.872,82.019-21.794,101.213
						c-0.007,0.007-0.017,0.015-0.024,0.022C1905.21,2436.202,1890.652,2440.215,1878.904,2440.215z M1905.325,2405.813h0.051
						H1905.325z M1824.715,2340.34c1.545,0,3.101,0.161,4.644,0.488c7.368,1.565,13.452,6.738,16.184,13.76
						c6.06,15.386,20.452,38.142,31.663,40.735c1.282,0.291,5.171,1.196,13.018-5.979c7.2-6.609,12.712-28.73,7.798-61.687
						c-10.266-68.872-60.342-157.363-149.185-201.37c-50.122-6.477-95.061-11.641-111.194-13.464
						c-101.477,51.147-94.814,192.507-87.729,248.691c160.503,80.269,258.093-13.723,259.065-14.692
						C1813.206,2342.627,1818.882,2340.34,1824.715,2340.34z"/>
				</g>
			</g>
		</g>
		<g style="opacity:0.2;">
			<g>
				<g>
					<path style="fill:#39005E;" d="M1908.51,2288.483c0,0-4.076,64.643-78.651,0c0,0-140.322,110.132-297.785,0
						c0,0-225.031,81.402-332.504,11.971c-107.472-69.431-75.497-197.333-75.497-197.333s-189.99,216.486,90.128,338.589
						c0,0,105.344,42.156,320.819-62.718c0,0,83.796,98.63,289.695-16.29C1824.714,2362.702,1918.087,2530.294,1908.51,2288.483z"/>
				</g>
			</g>
		</g>
		<g>
			<g>
				<g>
					<path style="fill-rule:evenodd;clip-rule:evenodd;fill:#39005E;" d="M1882.233,2387.56c-7.731,1.223-13.435-4.33-18.244-9.805
						c-12.492-14.2-18.882-33.796-18.882-33.796c-2.497-7.576-8.693-13.352-16.419-15.319c-7.732-1.972-15.932,0.14-21.753,5.599
						c-41.228,38.764-83.617,54.322-121.761,57.613c-73.808,6.368-131.275-31.938-131.275-31.938
						c-7.771-5.218-17.927-5.207-25.686,0.027c-53.389,36.173-108.158,53.96-157.195,61.703
						c-95.086,15.016-168.62-7.571-168.62-7.571c-11.77-3.681-24.318,2.883-27.999,14.654c-3.687,11.771,2.877,24.318,14.647,27.999
						c0,0,82.316,26.196,188.966,9.743c51.121-7.889,107.818-25.563,163.721-60.507c24.591,13.172,80.444,37.681,147.369,32.066
						c39.423-3.302,82.757-16.853,125.738-49.395c5.917,10.095,13.642,20.86,23.089,29.056c15.267,13.25,34.301,20.507,56.557,15.11
						c14.005-3.396,27.099-14.636,34.909-34.462c10.843-27.502,12.223-75.891-4.385-128.224
						c-19.837-62.501-64.73-131.013-145.906-173.889c-50.73-26.541-122.353-35.188-195.854-30.691
						c-38.758,2.375-77.969,8.246-114.559,16.128c-30.189,6.508-58.502,14.385-83.377,22.703
						c-35.184,11.759-63.283,24.291-80.21,34.614c-4.888,2.581-6.76,8.654-4.173,13.542c2.581,4.888,8.654,6.759,13.541,4.172
						c16.999-7.692,44.836-15.491,78.941-22.97c24.681-5.407,52.512-10.324,81.969-14.475c35.329-4.984,72.864-8.482,109.862-9.558
						c64.752-1.889,127.856,3.524,172.229,27.345c55.456,29.496,90.756,73.12,111.052,116.699
						c18.748,40.261,24.798,80.417,21.508,109.007c-0.872,7.564-2.357,14.18-4.62,19.474
						C1884.591,2384.13,1882.899,2386.616,1882.233,2387.56L1882.233,2387.56z"/>
				</g>
			</g>
		</g>
		<g style="opacity:0.2;">
			<g>
				<g>
					<path style="fill:#39005E;" d="M2773.844,2697.2c-0.782,80.333-59.384,199.937-210.831,204.295
						c-194.798,5.586-226.082-174.128-181.279-250.047c4.413,91.729,92.623,164.966,200.831,164.966
						C2671.948,2816.414,2747.755,2766.36,2773.844,2697.2z"/>
				</g>
			</g>
		</g>
		<g>
			<g>
				<g>
					
						<ellipse transform="matrix(0.6108 -0.7918 0.7918 0.6108 -520.0468 2046.1158)" style="fill:#FFFFFF;" cx="1821.328" cy="1552.06" rx="29.901" ry="20.052"/>
				</g>
			</g>
		</g>
		<g style="opacity:0.35;">
			<g>
				<g>
					<path style="fill:#FFFFFF;" d="M1757.736,1508.725c-5.944,11.321-14.777,18.392-19.729,15.792
						c-4.951-2.6-4.147-13.885,1.798-25.207c5.944-11.321,14.777-18.392,19.729-15.792
						C1764.485,1486.118,1763.68,1497.403,1757.736,1508.725z"/>
				</g>
			</g>
		</g>
		<g style="opacity:0.35;">
			<g>
				<g>
					
						<ellipse transform="matrix(0.3775 -0.926 0.926 0.3775 -54.7604 3218.6028)" style="fill:#FFFFFF;" cx="2366.538" cy="1650.031" rx="23.153" ry="10.126"/>
				</g>
			</g>
		</g>
		<g>
			<g>
				<g>
					
						<ellipse transform="matrix(0.9972 -0.0751 0.0751 0.9972 -118.5621 177.0541)" style="fill:#FFFFFF;" cx="2293.889" cy="1664.298" rx="15.287" ry="22.795"/>
				</g>
			</g>
		</g>
		<g>
			<g>
				<g>
					<path style="fill:#39005E;" d="M1922.286,1543.421c-1.829,0-3.687-0.222-5.542-0.684
						c-109.246-27.207-180.115-151.152-183.079-156.414c-6.196-11.003-2.297-24.944,8.704-31.14
						c11.006-6.196,24.929-2.3,31.128,8.684l0,0c0.632,1.118,64.324,112.092,154.297,134.5c12.253,3.052,19.712,15.457,16.66,27.71
						C1941.866,1536.475,1932.537,1543.421,1922.286,1543.421z"/>
				</g>
			</g>
		</g>
		<g>
			<g>
				<g>
					<path style="fill:#39005E;" d="M2254.712,1629.075c-13.347,0-22.012-0.557-23.365-0.649
						c-12.597-0.869-22.104-11.785-21.238-24.382c0.869-12.595,11.768-22.095,24.383-21.238
						c1.955,0.134,121.021,7.432,175.193-38.408c9.641-8.154,24.067-6.948,32.222,2.686c8.157,9.639,6.953,24.065-2.685,32.222
						C2387.066,1623.438,2297.195,1629.075,2254.712,1629.075z"/>
				</g>
			</g>
		</g>
	</g>
	<g>
		<g>
			<g>
				<g>
					<path style="fill:#F70200;" d="M2941.891,1523.041c-25.435-41.615-37.976-91.57-32.61-143.831
						c13.024-126.849,126.413-219.122,253.262-206.098c126.849,13.024,219.122,126.414,206.098,253.262
						s-126.414,219.122-253.262,206.098c-35.283-3.623-67.877-15.031-96.288-32.313l-106.848,23.963L2941.891,1523.041z"/>
				</g>
			</g>
		</g>
		<g style="opacity:0.5;">
			<g>
				<g>
					<g>
						<path style="fill:#FFFFFF;" d="M3158.008,1217.286c-118.495-12.166-225.217,67.562-249.381,181.515
							c-0.029-8.14,0.322-16.352,1.172-24.631c13.024-126.849,126.413-219.122,253.262-206.098
							c126.849,13.024,219.122,126.413,206.098,253.262c-0.854,8.316-2.163,16.472-3.855,24.471
							C3364.857,1329.269,3276.541,1229.456,3158.008,1217.286z"/>
					</g>
				</g>
			</g>
		</g>
		<g>
			<g>
				<g>
					<path style="fill:#FFFFFF;" d="M3141.026,1290.953c-53.036,0-96.018,43.029-96.018,96.066
						c0,35.024,18.822,65.569,46.841,82.342v29.496c0,3.86,3.098,6.957,6.958,6.957h5.812c3.86,0,6.958-3.097,6.958-6.957v-20.443
						c2.096,0.619,4.193,1.191,6.337,1.715v18.727c0,3.86,3.098,6.957,6.957,6.957h5.814c3.86,0,6.957-3.097,6.957-6.957v-16.011
						c1.144,0.048,2.24,0.191,3.383,0.191s2.287-0.143,3.431-0.191v16.011c0,3.86,3.098,6.957,6.957,6.957h5.813
						c3.812,0,6.957-3.097,6.957-6.957v-18.727c2.098-0.524,4.242-1.096,6.291-1.715v20.443c0,3.86,3.098,6.957,6.958,6.957h5.812
						c3.86,0,6.958-3.097,6.958-6.957v-29.496c28.066-16.774,46.889-47.318,46.889-82.342
						C3237.091,1333.982,3194.062,1290.953,3141.026,1290.953z M3101.141,1427.856c-16.296,0-29.448-13.2-29.448-29.449
						c0-16.297,13.152-29.449,29.448-29.449c16.25,0,29.402,13.152,29.402,29.449
						C3130.543,1414.656,3117.391,1427.856,3101.141,1427.856z M3180.958,1427.856c-16.249,0-29.448-13.2-29.448-29.449
						c0-16.297,13.199-29.449,29.448-29.449c16.25,0,29.449,13.152,29.449,29.449
						C3210.407,1414.656,3197.208,1427.856,3180.958,1427.856z"/>
				</g>
			</g>
		</g>
		<g style="opacity:0.2;">
			<g>
				<g>
					<path style="fill:#39005E;" d="M2944.735,1511.941c63.241,53.491,150.364,76.916,236.881,55.383
						c95.948-23.88,166.643-96.944,192.07-185.618c0.608,11.757,0.335,23.709-0.905,35.785
						c-13.024,126.849-126.414,219.122-253.262,206.098c-35.283-3.623-67.877-15.03-96.288-32.313l-106.849,23.963l29.648-101.081
						C2945.584,1513.428,2945.173,1512.676,2944.735,1511.941z"/>
				</g>
			</g>
		</g>
		<g>
			<g>
				<g>
					<path style="fill:#39005E;" d="M3139.436,1656.053c-8.74,0-17.527-0.447-26.34-1.353
						c-34.722-3.567-67.539-13.923-97.686-30.816l-98.279,22.041c-7.719,1.729-15.786-0.747-21.194-6.524
						c-5.41-5.771-7.366-13.977-5.139-21.57l26.939-91.836c-25.449-45.52-36.05-96.841-30.686-149.07
						c14.263-138.901,138.838-240.322,277.773-226.045c67.288,6.909,127.859,39.607,170.552,92.073
						c42.695,52.463,62.402,118.416,55.493,185.703c-6.909,67.285-39.607,127.856-92.07,170.549
						C3253.206,1636.309,3197.425,1656.053,3139.436,1656.053z M3019.09,1577.813c4.065,0,8.086,1.111,11.614,3.254
						c26.57,16.162,55.827,25.979,86.958,29.175c55.398,5.705,109.724-10.535,152.93-45.698
						c43.206-35.159,70.132-85.039,75.82-140.452c5.691-55.413-10.54-109.724-45.698-152.93
						c-35.161-43.206-85.042-70.134-140.454-75.823c-114.392-11.794-217.007,71.763-228.75,186.152
						c-4.7,45.769,5.483,90.686,29.448,129.895c3.286,5.378,4.148,11.895,2.375,17.942l-18.975,64.69l69.841-15.664
						C3015.816,1577.994,3017.456,1577.813,3019.09,1577.813z"/>
				</g>
			</g>
		</g>
	</g>
</g>
</svg>
